<svg width="24" height="24" viewBox="0 0 24 24" fill="none" xmlns="http://www.w3.org/2000/svg">
<path d="M11 4.98C11 4.43 11.45 3.98 12 3.98C12.55 3.98 13 4.43 13 4.98V12C13 12.55 12.55 13 12 13C11.45 13 11 12.55 11 12V4.98Z" fill="currentColor"/>
<path d="M7.05 10.5C7.05 11.05 6.6 11.5 6.05 11.5C5.5 11.5 5.05 11.05 5.05 10.5C5.05 6.36 8.41 3 12.55 3C16.69 3 20.05 6.36 20.05 10.5C20.05 11.05 19.6 11.5 19.05 11.5C18.5 11.5 18.05 11.05 18.05 10.5C18.05 7.46 15.59 5 12.55 5C9.51 5 7.05 7.46 7.05 10.5Z" fill="currentColor"/>
<path d="M8.5 12C8.5 8.69 10.69 6.5 14 6.5C17.31 6.5 19.5 8.69 19.5 12V13.5C19.5 14.05 19.05 14.5 18.5 14.5C17.95 14.5 17.5 14.05 17.5 13.5V12C17.5 9.79 15.71 8 13.5 8C11.29 8 9.5 9.79 9.5 12V13.5C9.5 14.05 9.05 14.5 8.5 14.5C7.95 14.5 7.5 14.05 7.5 13.5V12Z" fill="currentColor"/>
<path d="M12 16C15.87 16 19 14.21 19 12H21C21 15.31 17.31 18 12 18V20H14C14.55 20 15 20.45 15 21C15 21.55 14.55 22 14 22H10C9.45 22 9 21.55 9 21C9 20.45 9.45 20 10 20H12V18C6.69 18 3 15.31 3 12H5C5 14.21 8.13 16 12 16Z" fill="currentColor"/>
</svg>
